<?xml version="1.0" encoding="iso-8859-1"?>
<!-- Generator: Adobe Illustrator 19.0.0, SVG Export Plug-In . SVG Version: 6.00 Build 0)  -->
<svg version="1.1" id="Capa_1" xmlns="http://www.w3.org/2000/svg" xmlns:xlink="http://www.w3.org/1999/xlink" x="0px" y="0px"
	 viewBox="0 0 512 512" style="enable-background:new 0 0 512 512;" xml:space="preserve">
<path style="fill:#989DA0;" d="M128.124,186.555H99.747c-1.455,0-2.635,1.18-2.635,2.636v133.581c0,1.456,1.18,2.635,2.635,2.635
	h28.378c1.456,0,2.636-1.179,2.636-2.635V189.191C130.76,187.735,129.58,186.555,128.124,186.555z"/>
<path style="fill:#F2D422;" d="M497.622,253.917c13.818-11.268,12.345-24.8,12.345-33.666c0-18.58-16.389-33.696-36.537-33.696
	h-14.716c-20.148,0-36.539,15.116-36.539,33.696c0,8.72-1.543,22.337,12.347,33.666c-15.926,11.775-14.321,26.858-14.321,36.28
	c0,19.415,17.129,35.21,38.181,35.21h15.38c21.051,0,38.179-15.794,38.179-35.21C511.941,281.203,513.729,265.827,497.622,253.917z
	 M479.808,230.105c0,7.575-6.163,13.737-13.736,13.737c-7.575,0-13.736-6.162-13.736-13.737v-4.685
	c0-7.574,6.161-13.737,13.736-13.737c7.573,0,13.736,6.163,13.736,13.737V230.105z M451.244,283.586
	c0-8.175,6.652-14.826,14.828-14.826s14.827,6.652,14.827,14.826v5.059c0,8.176-6.652,14.827-14.827,14.827
	c-8.177,0-14.828-6.652-14.828-14.827V283.586z"/>
<g>
	<path style="fill:#989DA0;" d="M83.615,186.555H32.69C14.664,186.555,0,200.503,0,217.649v105.123c0,1.456,1.18,2.635,2.635,2.635
		h28.378c1.456,0,2.636-1.179,2.636-2.635v-52.95h34.526c1.456,0,2.636-1.179,2.636-2.636v-21.882c0-1.455-1.18-2.635-2.636-2.635
		H33.648V221.8c0-6.233,3.445-7.612,5.549-7.873l44.417-0.008c1.456,0,2.635-1.179,2.635-2.636v-22.092
		C86.249,187.735,85.07,186.555,83.615,186.555z"/>
	<path style="fill:#989DA0;" d="M226.654,186.555H175.73c-18.025,0-32.691,13.948-32.691,31.094v105.123
		c0,1.456,1.18,2.635,2.636,2.635h28.378c1.456,0,2.635-1.179,2.635-2.635v-52.95h34.527c1.456,0,2.635-1.179,2.635-2.636v-21.882
		c0-1.455-1.179-2.635-2.635-2.635h-34.527V221.8c0-6.233,3.444-7.612,5.55-7.873l44.416-0.008c1.456,0,2.636-1.179,2.636-2.636
		v-22.092C229.289,187.735,228.109,186.555,226.654,186.555z"/>
	<path style="fill:#989DA0;" d="M298.703,186.555h-26.641c-18.025,0-32.689,13.948-32.689,31.094
		c-0.001,112.371-0.369,105.847,0.772,106.986c1.074,1.076-0.451,0.772,30.24,0.772c1.455,0,2.636-1.179,2.636-2.635V222.546
		c0-7.893,5.762-8.678,7.45-8.73l9.692-0.002c1.668,0.05,7.147,0.767,7.557,7.81l0.004,29.672h-16.105
		c-1.456,0-2.635,1.18-2.635,2.636v21.989c0,1.457,1.179,2.636,2.635,2.636h16.105v44.216c0,1.456,1.18,2.635,2.636,2.635h28.377
		c1.457,0,2.636-1.179,2.636-2.635l-0.001-106.018C330.906,199.821,316.557,186.555,298.703,186.555z"/>
</g>
<path style="fill:#F2D422;" d="M376.627,186.555h-20.579c-1.456,0-2.635,1.18-2.635,2.636v21.99c0,1.455,1.179,2.635,2.635,2.635
	l12.021-0.001c0.07,0.002,6.961,0.199,6.961,8.518v100.44c0,1.456,1.179,2.635,2.635,2.635h28.377c1.456,0,2.635-1.179,2.635-2.635
	V218.606C408.677,200.934,394.299,186.555,376.627,186.555z"/>
<path style="fill:#818689;" d="M113.594,322.772V189.191c0-1.456,1.18-2.636,2.635-2.636H99.747c-1.455,0-2.635,1.18-2.635,2.636
	v133.581c0,1.456,1.18,2.635,2.635,2.635h16.482C114.774,325.407,113.594,324.227,113.594,322.772z"/>
<path style="fill:#F4BD25;" d="M436.684,290.197c0-9.462-1.379-21.598,10.589-33.114l-0.015-0.003
	c1.542-1.429,2.053-4.033-0.041-6.761c-9.689-10.653-8.559-20.906-8.559-30.068c0-18.307,15.916-33.239,35.656-33.675
	c-1.259-0.028,1.908-0.021-15.599-0.021c-20.148,0-36.539,15.116-36.539,33.696c0,8.72-1.543,22.337,12.347,33.666
	c-15.926,11.775-14.321,26.858-14.321,36.28c0,19.415,17.129,35.21,38.181,35.21h15.38c0.185,0,0.367-0.01,0.551-0.013
	C453.515,325.12,436.684,309.441,436.684,290.197z"/>
<g>
	<path style="fill:#818689;" d="M16.482,322.772V217.649c0-17.146,14.664-31.094,32.69-31.094H32.69
		C14.664,186.555,0,200.503,0,217.649v105.123c0,1.456,1.18,2.635,2.635,2.635h16.482C17.662,325.407,16.482,324.227,16.482,322.772
		z"/>
	<path style="fill:#818689;" d="M159.521,322.772V217.649c0-17.146,14.665-31.094,32.691-31.094H175.73
		c-18.025,0-32.691,13.948-32.691,31.094v105.123c0,1.456,1.18,2.635,2.636,2.635h16.482
		C160.701,325.407,159.521,324.227,159.521,322.772z"/>
	<path style="fill:#818689;" d="M255.855,217.649c0-17.146,14.664-31.094,32.689-31.094h-16.482
		c-18.025,0-32.689,13.948-32.689,31.094c-0.001,112.371-0.369,105.847,0.772,106.986c1.029,1.031,0.377,0.772,18.345,0.772
		c-0.699,0-1.369-0.277-1.863-0.772C255.519,323.53,255.853,330.168,255.855,217.649z"/>
</g>
<path style="fill:#F4BD25;" d="M391.513,322.772v-100.44c0-8.319-6.891-8.516-6.961-8.518l-12.021,0.001
	c-1.456,0-2.635-1.18-2.635-2.635v-21.99c0-1.456,1.179-2.636,2.635-2.636h-16.482c-1.456,0-2.635,1.18-2.635,2.636v21.99
	c0,1.455,1.179,2.635,2.635,2.635l12.021-0.001c0.07,0.002,6.961,0.199,6.961,8.518v100.44c0,1.456,1.179,2.635,2.635,2.635h16.482
	C392.692,325.407,391.513,324.227,391.513,322.772z"/>
<g>
</g>
<g>
</g>
<g>
</g>
<g>
</g>
<g>
</g>
<g>
</g>
<g>
</g>
<g>
</g>
<g>
</g>
<g>
</g>
<g>
</g>
<g>
</g>
<g>
</g>
<g>
</g>
<g>
</g>
</svg>
